# xmcd
#
# Track frame offsets: 
#        150
#        18135
#        34870
#        60077
#        74643
#        91820
#        120680
#        137881
#        156706
#        178251
#
# Disc length: 2546 seconds
#
# Revision: 0
# Processed by: cddbd v1.5.2PL0 Copyright (c) Steve Scherf et al.
# Submitted via: ExactAudioCopyFreeDBPlugin 1.0
#
DISCID=8909f00a
DTITLE=Sleepy Guitar Johnson - The Acoustic Jams - Just Music: The Ins
DTITLE=trumentals, Vol. III
DYEAR=2013
DGENRE=Blues,Country
TTITLE0=Magic Morning
TTITLE1=Miss Monee
TTITLE2=Northwest Side
TTITLE3=Southern Slope
TTITLE4=Big Sur Ramble
TTITLE5=El Paso De Robles
TTITLE6=El Camino Highway
TTITLE7=Wine O'Clock
TTITLE8=SLO River
TTITLE9=America
EXTD=
EXTT0=
EXTT1=
EXTT2=
EXTT3=
EXTT4=
EXTT5=
EXTT6=
EXTT7=
EXTT8=
EXTT9=
PLAYORDER=
